<?xml version="1.0" ?><!DOCTYPE svg  PUBLIC '-//W3C//DTD SVG 1.1//EN'  'http://www.w3.org/Graphics/SVG/1.1/DTD/svg11.dtd'><svg enable-background="new 0 0 96 96" height="96px" id="Layer_1" version="1.1" viewBox="0 0 96 96" width="96px" xml:space="preserve" xmlns="http://www.w3.org/2000/svg" xmlns:xlink="http://www.w3.org/1999/xlink"><g><path clip-rule="evenodd" d="M48,94.871C22.113,94.871,1.129,73.887,1.129,48   C1.129,22.114,22.113,1.129,48,1.129c25.886,0,46.871,20.985,46.871,46.871C94.871,73.887,73.886,94.871,48,94.871" fill="#4FA7A0" fill-rule="evenodd"/><path clip-rule="evenodd" d="M73.041,49.506L69.35,49.25l0.229,7.133   c0.005,0.038,0.007,0.076,0.007,0.116V56.5l-0.002,0.066c0.004,0.96-0.369,1.841-0.983,2.496c-0.628,0.67-1.512,1.104-2.5,1.143   l-0.024,0.001h-0.001h-0.002l-0.028,0.001v0.003h-0.001l-0.05-0.002l-20.776,0.666l25.271,1.848h0.005l0.021,0.002l0,0   c0.436,0.024,0.844-0.13,1.153-0.399c0.315-0.274,0.527-0.666,0.56-1.106l0,0l0,0v-0.001v-0.004L73.041,49.506z M73.304,42.192   l0.229,0.262l0.018-0.246L73.304,42.192z M71.796,47.418l-2.602-3.035l0.043,1.348l1.397,1.606L71.796,47.418z M69.729,41.943   l3.551,4.142l0.057-0.811l-2.852-3.278L69.729,41.943z M66.919,34.326c-0.067-0.098-0.146-0.189-0.232-0.271   c-0.025-0.023-0.052-0.046-0.078-0.068c0.171,0.249,0.275,0.545,0.286,0.865l0.053,1.641c-0.002,0.05-0.001,0.1,0.005,0.149   l0.133,4.164c-0.001,0.038,0,0.075,0.004,0.113l0.165,5.145c-0.004,0.06-0.002,0.121,0.005,0.181l0.062,1.891   c-0.002,0.05,0,0.099,0.005,0.148l0.261,8.165l-0.001,0.051V56.5c0,0.033,0.002,0.066,0.005,0.099   c-0.004,0.42-0.172,0.807-0.443,1.097c-0.28,0.299-0.67,0.494-1.103,0.517V58.21h-0.001c-0.039,0-0.078,0.002-0.116,0.007   l-39.69,1.271c-0.033,0-0.067,0.001-0.1,0.004l-1.413,0.045l-0.05-0.001h-0.001c-0.033,0-0.066,0.001-0.099,0.005   c-0.384-0.004-0.739-0.145-1.019-0.375L55.687,94.24c18.212-3.005,32.881-16.507,37.59-34.084L73.454,38.544   c0.198,0.292,0.305,0.651,0.278,1.029v0.002v0.001l-0.045,0.641l-2.617-0.183l-0.066-0.005l-1.954-0.136l-0.073-2.287l1.022,0.071   c-0.063-0.086-0.133-0.166-0.21-0.239c-0.025-0.023-0.052-0.046-0.078-0.068c-0.067-0.099-0.146-0.189-0.232-0.27   c-0.025-0.023-0.052-0.046-0.078-0.068c-0.067-0.098-0.146-0.189-0.232-0.27c-0.025-0.024-0.051-0.047-0.078-0.069   c-0.067-0.098-0.146-0.188-0.232-0.27c-0.024-0.024-0.051-0.046-0.077-0.068c-0.067-0.098-0.146-0.189-0.232-0.271   c-0.025-0.023-0.052-0.046-0.078-0.068c-0.067-0.098-0.146-0.188-0.232-0.27c-0.025-0.023-0.051-0.046-0.077-0.068   c-0.068-0.098-0.146-0.188-0.233-0.27c-0.024-0.024-0.051-0.047-0.078-0.068c-0.067-0.098-0.146-0.189-0.232-0.27   c-0.024-0.023-0.051-0.046-0.077-0.068c-0.067-0.098-0.146-0.189-0.232-0.27c-0.025-0.024-0.052-0.047-0.078-0.069   c-0.067-0.098-0.146-0.188-0.232-0.27C66.972,34.37,66.945,34.348,66.919,34.326z" fill="#38817B" fill-rule="evenodd"/><line fill="none" stroke="#FFFFFF" stroke-linecap="round" stroke-linejoin="round" stroke-miterlimit="2.6131" stroke-width="1.9998" x1="67.943" x2="72.288" y1="36.534" y2="36.837"/><path d="   M72.288,36.837c1.442,0.1,2.54,1.361,2.439,2.804" fill="none" stroke="#FFFFFF" stroke-linecap="round" stroke-linejoin="round" stroke-miterlimit="2.6131" stroke-width="1.9998"/><line fill="none" stroke="#FFFFFF" stroke-linecap="round" stroke-linejoin="round" stroke-miterlimit="2.6131" stroke-width="1.9998" x1="74.728" x2="73.222" y1="39.641" y2="61.278"/><path d="   M73.222,61.278c-0.101,1.441-1.363,2.544-2.805,2.438" fill="none" stroke="#FFFFFF" stroke-linecap="round" stroke-linejoin="round" stroke-miterlimit="2.6131" stroke-width="1.9998"/><line fill="none" stroke="#FFFFFF" stroke-linecap="round" stroke-linejoin="round" stroke-miterlimit="2.6131" stroke-width="1.9998" x1="70.417" x2="26.218" y1="63.717" y2="60.485"/><line fill="none" stroke="#FFFFFF" stroke-linecap="round" stroke-linejoin="round" stroke-miterlimit="2.6131" stroke-width="1.9998" x1="23.81" x2="65.179" y1="33.604" y2="32.277"/><path d="   M65.179,32.277c1.444-0.046,2.664,1.098,2.711,2.542" fill="none" stroke="#FFFFFF" stroke-linecap="round" stroke-linejoin="round" stroke-miterlimit="2.6131" stroke-width="1.9998"/><line fill="none" stroke="#FFFFFF" stroke-linecap="round" stroke-linejoin="round" stroke-miterlimit="2.6131" stroke-width="1.9998" x1="67.89" x2="68.584" y1="34.819" y2="56.498"/><path d="   M68.584,56.498c0.047,1.444-1.098,2.665-2.542,2.711" fill="none" stroke="#FFFFFF" stroke-linecap="round" stroke-linejoin="round" stroke-miterlimit="2.6131" stroke-width="1.9998"/><line fill="none" stroke="#FFFFFF" stroke-linecap="round" stroke-linejoin="round" stroke-miterlimit="2.6131" stroke-width="1.9998" x1="66.042" x2="24.673" y1="59.209" y2="60.534"/><path d="   M24.673,60.534c-1.445,0.047-2.665-1.098-2.711-2.541" fill="none" stroke="#FFFFFF" stroke-linecap="round" stroke-linejoin="round" stroke-miterlimit="2.6131" stroke-width="1.9998"/><line fill="none" stroke="#FFFFFF" stroke-linecap="round" stroke-linejoin="round" stroke-miterlimit="2.6131" stroke-width="1.9998" x1="21.962" x2="21.267" y1="57.993" y2="36.313"/><path d="   M21.267,36.313c-0.046-1.443,1.098-2.664,2.543-2.71" fill="none" stroke="#FFFFFF" stroke-linecap="round" stroke-linejoin="round" stroke-miterlimit="2.6131" stroke-width="1.9998"/><line fill="none" stroke="#FFFFFF" stroke-linecap="round" stroke-linejoin="round" stroke-miterlimit="2.6131" stroke-width="1.9998" x1="26.328" x2="33.96" y1="43.931" y2="43.687"/><path d="   M33.96,43.687c0.267-0.009,0.492,0.202,0.5,0.469" fill="none" stroke="#FFFFFF" stroke-linecap="round" stroke-linejoin="round" stroke-miterlimit="2.6131" stroke-width="1.9998"/><line fill="none" stroke="#FFFFFF" stroke-linecap="round" stroke-linejoin="round" stroke-miterlimit="2.6131" stroke-width="1.9998" x1="34.46" x2="34.588" y1="44.155" y2="48.155"/><path d="   M34.588,48.155c0.009,0.266-0.202,0.491-0.469,0.5" fill="none" stroke="#FFFFFF" stroke-linecap="round" stroke-linejoin="round" stroke-miterlimit="2.6131" stroke-width="1.9998"/><line fill="none" stroke="#FFFFFF" stroke-linecap="round" stroke-linejoin="round" stroke-miterlimit="2.6131" stroke-width="1.9998" x1="34.119" x2="26.487" y1="48.655" y2="48.899"/><path d="   M26.487,48.899c-0.267,0.009-0.491-0.203-0.5-0.469" fill="none" stroke="#FFFFFF" stroke-linecap="round" stroke-linejoin="round" stroke-miterlimit="2.6131" stroke-width="1.9998"/><line fill="none" stroke="#FFFFFF" stroke-linecap="round" stroke-linejoin="round" stroke-miterlimit="2.6131" stroke-width="1.9998" x1="25.987" x2="25.859" y1="48.431" y2="44.431"/><path d="   M25.859,44.431c-0.009-0.266,0.202-0.49,0.469-0.5" fill="none" stroke="#FFFFFF" stroke-linecap="round" stroke-linejoin="round" stroke-miterlimit="2.6131" stroke-width="1.9998"/><line fill="none" stroke="#FFFFFF" stroke-linecap="round" stroke-linejoin="round" stroke-miterlimit="2.6131" stroke-width="1.9998" x1="74.107" x2="68.316" y1="48.579" y2="48.177"/><line fill="none" stroke="#FFFFFF" stroke-linecap="round" stroke-linejoin="round" stroke-miterlimit="2.6131" stroke-width="1.9998" x1="68.082" x2="74.615" y1="40.827" y2="41.282"/><line fill="none" stroke="#FFFFFF" stroke-linecap="round" stroke-linejoin="round" stroke-miterlimit="2.6131" stroke-width="1.9998" x1="68.25" x2="70.149" y1="46.121" y2="48.303"/><line fill="none" stroke="#FFFFFF" stroke-linecap="round" stroke-linejoin="round" stroke-miterlimit="2.6131" stroke-width="1.9998" x1="70.967" x2="74.361" y1="41.028" y2="44.931"/><polyline fill="none" points="   26.251,46.615 28.729,46.495 30.144,43.813  " stroke="#FFFFFF" stroke-linecap="round" stroke-linejoin="round" stroke-miterlimit="2.6131" stroke-width="1.9998"/><polyline fill="none" points="   30.044,44.884 31.639,46.236 33.543,47.915  " stroke="#FFFFFF" stroke-linecap="round" stroke-linejoin="round" stroke-miterlimit="2.6131" stroke-width="1.9998"/><path d="   M27.001,56.83c0.309-0.011,0.569,0.231,0.58,0.54c0.011,0.311-0.231,0.57-0.541,0.581c-0.31,0.012-0.569-0.231-0.58-0.541   C26.449,57.102,26.691,56.841,27.001,56.83" fill="none" stroke="#FFFFFF" stroke-linecap="round" stroke-linejoin="round" stroke-miterlimit="2.6131" stroke-width="1.9998"/><path d="   M29.871,56.775c0.31-0.011,0.569,0.231,0.58,0.541c0.012,0.31-0.23,0.57-0.54,0.58c-0.31,0.012-0.57-0.23-0.581-0.54   S29.562,56.787,29.871,56.775" fill="none" stroke="#FFFFFF" stroke-linecap="round" stroke-linejoin="round" stroke-miterlimit="2.6131" stroke-width="1.9998"/><path d="   M32.741,56.721c0.309-0.011,0.569,0.231,0.58,0.541s-0.231,0.57-0.541,0.581s-0.569-0.231-0.58-0.541S32.432,56.732,32.741,56.721" fill="none" stroke="#FFFFFF" stroke-linecap="round" stroke-linejoin="round" stroke-miterlimit="2.6131" stroke-width="1.9998"/><path d="   M37.762,56.504c0.309-0.011,0.569,0.231,0.58,0.54c0.011,0.311-0.231,0.57-0.541,0.581c-0.31,0.012-0.569-0.231-0.58-0.541   C37.21,56.775,37.452,56.515,37.762,56.504" fill="none" stroke="#FFFFFF" stroke-linecap="round" stroke-linejoin="round" stroke-miterlimit="2.6131" stroke-width="1.9998"/><path d="   M40.632,56.449c0.31-0.011,0.569,0.231,0.58,0.541c0.012,0.31-0.23,0.57-0.54,0.58c-0.31,0.012-0.57-0.23-0.581-0.54   S40.322,56.461,40.632,56.449" fill="none" stroke="#FFFFFF" stroke-linecap="round" stroke-linejoin="round" stroke-miterlimit="2.6131" stroke-width="1.9998"/><path d="   M43.502,56.395c0.309-0.011,0.569,0.231,0.58,0.541s-0.231,0.57-0.541,0.581s-0.569-0.231-0.58-0.541S43.192,56.406,43.502,56.395" fill="none" stroke="#FFFFFF" stroke-linecap="round" stroke-linejoin="round" stroke-miterlimit="2.6131" stroke-width="1.9998"/><path d="   M48.344,56.16c0.309-0.011,0.569,0.231,0.58,0.54c0.011,0.311-0.231,0.57-0.541,0.581c-0.31,0.012-0.569-0.231-0.581-0.541   C47.792,56.432,48.034,56.171,48.344,56.16" fill="none" stroke="#FFFFFF" stroke-linecap="round" stroke-linejoin="round" stroke-miterlimit="2.6131" stroke-width="1.9998"/><path d="   M51.214,56.105c0.309-0.011,0.569,0.231,0.58,0.541c0.012,0.31-0.23,0.57-0.541,0.58c-0.309,0.012-0.569-0.23-0.58-0.54   C50.661,56.377,50.904,56.117,51.214,56.105" fill="none" stroke="#FFFFFF" stroke-linecap="round" stroke-linejoin="round" stroke-miterlimit="2.6131" stroke-width="1.9998"/><path d="   M54.083,56.051c0.31-0.011,0.57,0.231,0.581,0.541s-0.231,0.57-0.541,0.581s-0.569-0.231-0.581-0.541   C53.532,56.322,53.774,56.063,54.083,56.051" fill="none" stroke="#FFFFFF" stroke-linecap="round" stroke-linejoin="round" stroke-miterlimit="2.6131" stroke-width="1.9998"/><path d="   M58.675,55.834c0.309-0.011,0.569,0.231,0.58,0.54c0.012,0.311-0.23,0.57-0.541,0.581c-0.309,0.012-0.568-0.231-0.58-0.541   C58.123,56.105,58.365,55.845,58.675,55.834" fill="none" stroke="#FFFFFF" stroke-linecap="round" stroke-linejoin="round" stroke-miterlimit="2.6131" stroke-width="1.9998"/><path d="   M61.546,55.779c0.309-0.011,0.568,0.231,0.58,0.541s-0.23,0.57-0.541,0.58c-0.309,0.012-0.57-0.23-0.58-0.54   C60.993,56.051,61.235,55.791,61.546,55.779" fill="none" stroke="#FFFFFF" stroke-linecap="round" stroke-linejoin="round" stroke-miterlimit="2.6131" stroke-width="1.9998"/><path d="   M64.415,55.725c0.309-0.011,0.57,0.231,0.58,0.541c0.012,0.31-0.23,0.57-0.541,0.581c-0.309,0.011-0.568-0.231-0.58-0.541   C63.864,55.996,64.106,55.736,64.415,55.725" fill="none" stroke="#FFFFFF" stroke-linecap="round" stroke-linejoin="round" stroke-miterlimit="2.6131" stroke-width="1.9998"/><line fill="none" stroke="#FFFFFF" stroke-linecap="round" stroke-linejoin="round" stroke-miterlimit="2.6131" stroke-width="1.9998" x1="68.584" x2="73.92" y1="42.141" y2="48.364"/></g></svg>