<?xml version="1.0" ?><!DOCTYPE svg  PUBLIC '-//W3C//DTD SVG 1.1//EN'  'http://www.w3.org/Graphics/SVG/1.1/DTD/svg11.dtd'><svg enable-background="new 0 0 96 96" height="96px" id="Layer_1" version="1.1" viewBox="0 0 96 96" width="96px" xml:space="preserve" xmlns="http://www.w3.org/2000/svg" xmlns:xlink="http://www.w3.org/1999/xlink"><g><path clip-rule="evenodd" d="M48,94.871C22.113,94.871,1.129,73.887,1.129,48   C1.129,22.114,22.113,1.129,48,1.129c25.886,0,46.871,20.985,46.871,46.871C94.871,73.887,73.886,94.871,48,94.871" fill="#50A7A0" fill-rule="evenodd"/><path clip-rule="evenodd" d="M50.54,94.803c-0.016-0.021-0.03-0.044-0.044-0.066   c-0.139-0.084-0.255-0.2-0.339-0.338c-0.138-0.084-0.254-0.2-0.338-0.339c-0.139-0.084-0.255-0.2-0.339-0.338   c-0.138-0.084-0.254-0.201-0.338-0.339c-0.139-0.084-0.255-0.2-0.339-0.339c-0.139-0.084-0.255-0.2-0.338-0.338   c-0.139-0.084-0.255-0.2-0.339-0.339c-0.139-0.084-0.255-0.2-0.339-0.338c-0.138-0.084-0.254-0.2-0.338-0.339   c-0.139-0.084-0.255-0.2-0.339-0.339c-0.139-0.083-0.254-0.2-0.338-0.338c-0.139-0.084-0.255-0.2-0.339-0.339   c-0.139-0.084-0.255-0.2-0.339-0.338c-0.138-0.084-0.254-0.2-0.338-0.339c-0.139-0.084-0.255-0.2-0.339-0.338   c-0.138-0.084-0.254-0.2-0.338-0.339c-0.139-0.084-0.255-0.2-0.339-0.339c-0.139-0.084-0.255-0.2-0.338-0.338   c-0.139-0.084-0.255-0.2-0.339-0.339c-0.139-0.084-0.255-0.2-0.339-0.338c-0.138-0.084-0.254-0.2-0.338-0.339   c-0.139-0.084-0.255-0.2-0.339-0.339c-0.138-0.083-0.254-0.199-0.338-0.338c-0.139-0.084-0.255-0.2-0.339-0.339   c-0.139-0.084-0.255-0.2-0.339-0.339c-0.138-0.084-0.254-0.2-0.338-0.338c-0.139-0.084-0.255-0.2-0.339-0.339   c-0.139-0.084-0.255-0.2-0.338-0.338c-0.139-0.084-0.255-0.2-0.339-0.339c-0.139-0.084-0.255-0.2-0.339-0.338   c-0.138-0.084-0.254-0.2-0.338-0.339c-0.139-0.084-0.255-0.2-0.339-0.339c-0.138-0.084-0.255-0.2-0.338-0.338   c-0.139-0.084-0.255-0.2-0.339-0.339c-0.139-0.084-0.255-0.2-0.339-0.338c-0.138-0.084-0.254-0.2-0.338-0.339   c-0.139-0.084-0.255-0.2-0.339-0.338c-0.138-0.084-0.254-0.2-0.338-0.339c-0.139-0.084-0.255-0.2-0.339-0.339   c-0.139-0.084-0.255-0.2-0.338-0.338c-0.139-0.084-0.255-0.2-0.339-0.339c-0.139-0.084-0.255-0.2-0.339-0.338   c-0.138-0.084-0.254-0.2-0.338-0.339c-0.139-0.084-0.255-0.2-0.339-0.339c-0.138-0.083-0.254-0.2-0.338-0.338   c-0.139-0.084-0.255-0.2-0.339-0.339c-0.139-0.084-0.255-0.2-0.339-0.338c-0.138-0.084-0.254-0.2-0.338-0.339   c-0.139-0.084-0.255-0.2-0.339-0.338c-0.138-0.084-0.254-0.2-0.338-0.339c-0.139-0.084-0.255-0.2-0.339-0.339   c-0.139-0.084-0.255-0.2-0.338-0.338c-0.139-0.084-0.255-0.2-0.339-0.339c-0.139-0.084-0.255-0.2-0.339-0.338   c-0.138-0.084-0.254-0.2-0.338-0.339c-0.139-0.084-0.255-0.2-0.339-0.339c-0.138-0.083-0.255-0.199-0.339-0.338   c-0.138-0.084-0.255-0.2-0.338-0.339c-0.139-0.084-0.255-0.2-0.339-0.339c-0.138-0.084-0.254-0.199-0.338-0.338   c-0.139-0.084-0.255-0.2-0.339-0.339c-0.139-0.084-0.255-0.2-0.339-0.338c-0.138-0.084-0.254-0.2-0.338-0.339   c-0.139-0.084-0.255-0.2-0.339-0.339c-0.138-0.083-0.254-0.199-0.338-0.338c-0.139-0.084-0.255-0.2-0.339-0.339   c-0.138-0.084-0.254-0.2-0.338-0.338c-0.139-0.084-0.255-0.2-0.339-0.339c-0.139-0.084-0.255-0.2-0.339-0.338   c-0.138-0.084-0.254-0.2-0.338-0.339c-0.139-0.084-0.255-0.2-0.339-0.338c-0.138-0.084-0.254-0.2-0.338-0.339   c-0.139-0.084-0.255-0.2-0.339-0.339c-0.139-0.084-0.255-0.2-0.338-0.338c-0.139-0.084-0.255-0.2-0.339-0.339   c-0.139-0.084-0.255-0.2-0.339-0.338c-0.138-0.084-0.254-0.2-0.338-0.339c-0.139-0.084-0.255-0.2-0.339-0.339   c-0.138-0.084-0.254-0.2-0.338-0.338c-0.139-0.084-0.255-0.2-0.339-0.339c-0.139-0.084-0.255-0.2-0.339-0.338   c-0.138-0.084-0.254-0.2-0.338-0.339c-0.139-0.084-0.255-0.2-0.339-0.338c-0.138-0.084-0.254-0.2-0.338-0.339   c-0.139-0.084-0.255-0.2-0.339-0.339c-0.139-0.083-0.255-0.2-0.338-0.338c-0.139-0.084-0.255-0.2-0.339-0.339   c-0.139-0.084-0.255-0.2-0.339-0.338c-0.138-0.084-0.254-0.2-0.338-0.339c-0.139-0.084-0.255-0.2-0.339-0.339   c-0.138-0.083-0.255-0.2-0.339-0.338c-0.138-0.084-0.255-0.2-0.338-0.339c-0.139-0.084-0.255-0.2-0.339-0.339   c-0.138-0.084-0.254-0.199-0.338-0.338c-0.139-0.084-0.255-0.2-0.339-0.339c-0.139-0.084-0.255-0.2-0.339-0.338   c-0.138-0.084-0.254-0.2-0.338-0.339c-0.139-0.084-0.255-0.2-0.339-0.338c-0.138-0.084-0.254-0.2-0.338-0.339   c-0.139-0.084-0.255-0.2-0.339-0.339c-0.138-0.084-0.254-0.2-0.338-0.338c-0.139-0.084-0.255-0.2-0.339-0.339   c-0.139-0.084-0.255-0.2-0.339-0.338c-0.138-0.084-0.254-0.2-0.338-0.339c-0.139-0.084-0.255-0.2-0.339-0.339   c-0.138-0.083-0.254-0.199-0.338-0.338c-0.139-0.084-0.255-0.2-0.339-0.339c0.151,0.092,0.328,0.145,0.518,0.145h6.61   c0.139,0.149,0.279,0.297,0.424,0.44c2.842,2.843,6.769,4.601,11.105,4.601c3.727,0,7.15-1.298,9.843-3.466   c1.43,0.335,3.138,0.608,5.036,0.8c2.052,0.208,4.315,0.324,6.679,0.324c4.418,0,8.432-0.396,11.348-1.036   c1.904-0.419,3.395-0.988,4.323-1.678c0.057,0.01,0.114,0.015,0.173,0.015h10.863c0.552,0,1-0.448,1-1s-0.448-1-1-1h-9.961   l-0.026-1.653c-0.01-0.611-0.021-1.284-0.028-1.859c0.038-0.14,0.059-0.283,0.059-0.429l-0.03-1.896   c-0.01-0.615-0.021-1.287-0.028-1.87c0.038-0.14,0.059-0.283,0.059-0.429l-0.03-1.894c-0.01-0.621-0.021-1.298-0.028-1.884   c0.038-0.141,0.059-0.283,0.059-0.43l-0.03-1.895c-0.01-0.62-0.021-1.298-0.028-1.885c0.035-0.134,0.053-0.27,0.053-0.408   c0-0.426-0.17-0.829-0.489-1.203c0.126,0.109,0.239,0.223,0.338,0.338c0.127,0.11,0.24,0.223,0.339,0.339   c0.127,0.109,0.239,0.223,0.338,0.338c0.127,0.11,0.24,0.224,0.339,0.339c0.127,0.11,0.24,0.223,0.339,0.339   c0.126,0.109,0.239,0.223,0.338,0.338c0.127,0.11,0.24,0.223,0.339,0.339c0.126,0.109,0.239,0.223,0.338,0.338   c0.127,0.11,0.24,0.223,0.339,0.339c0.127,0.109,0.239,0.223,0.338,0.338c0.127,0.11,0.24,0.224,0.339,0.339   c0.127,0.11,0.24,0.223,0.339,0.339c0.126,0.109,0.239,0.223,0.338,0.338c0.127,0.11,0.24,0.223,0.339,0.339   c0.127,0.109,0.239,0.223,0.338,0.338c0.127,0.11,0.24,0.224,0.339,0.339c0.127,0.11,0.24,0.224,0.34,0.34   c0.126,0.11,0.238,0.222,0.337,0.337c0.127,0.11,0.24,0.223,0.339,0.339c0.126,0.109,0.239,0.223,0.338,0.338   c0.127,0.11,0.241,0.225,0.34,0.34c0.126,0.11,0.239,0.223,0.337,0.338c0.127,0.11,0.24,0.223,0.339,0.338   c0.127,0.11,0.239,0.223,0.338,0.338c0.128,0.111,0.241,0.225,0.34,0.341c0.127,0.109,0.239,0.222,0.338,0.337   c0.127,0.11,0.239,0.223,0.338,0.338c0.127,0.11,0.239,0.223,0.339,0.339c0.127,0.11,0.24,0.224,0.34,0.34   c0.126,0.11,0.238,0.222,0.337,0.337c0.127,0.11,0.24,0.223,0.339,0.339c0.126,0.109,0.239,0.223,0.338,0.338   c0.127,0.11,0.241,0.225,0.34,0.34c0.126,0.11,0.239,0.223,0.337,0.338c0.127,0.11,0.24,0.223,0.339,0.338   c0.127,0.11,0.239,0.223,0.338,0.338c0.127,0.111,0.241,0.225,0.34,0.34c0.127,0.11,0.239,0.223,0.338,0.338   c0.127,0.11,0.239,0.223,0.338,0.338c0.127,0.11,0.24,0.223,0.339,0.339c0.127,0.11,0.24,0.224,0.339,0.34   c0.127,0.109,0.239,0.222,0.338,0.337c0.127,0.11,0.24,0.223,0.339,0.339c0.126,0.109,0.239,0.223,0.338,0.338   c0.127,0.11,0.241,0.224,0.34,0.34c0.126,0.11,0.239,0.223,0.337,0.338c0.127,0.11,0.24,0.223,0.339,0.338   c0.127,0.11,0.239,0.223,0.338,0.338c0.128,0.11,0.241,0.224,0.34,0.34c0.127,0.11,0.239,0.223,0.338,0.338   c0.127,0.11,0.24,0.223,0.339,0.339c0.126,0.109,0.239,0.223,0.338,0.338c0.127,0.11,0.24,0.223,0.339,0.339   c0.127,0.11,0.24,0.223,0.339,0.338c0.126,0.11,0.239,0.224,0.338,0.339c0.127,0.11,0.24,0.223,0.339,0.339   c0.126,0.109,0.239,0.223,0.338,0.338c0.127,0.11,0.24,0.223,0.339,0.339c0.127,0.109,0.239,0.223,0.338,0.338   c0.127,0.11,0.24,0.224,0.339,0.339c0.127,0.11,0.239,0.223,0.339,0.339c0.126,0.109,0.239,0.223,0.338,0.338   c0.127,0.11,0.24,0.223,0.339,0.339c0.126,0.109,0.239,0.223,0.338,0.338c0.127,0.11,0.24,0.223,0.339,0.339   c0.088,0.076,0.17,0.154,0.244,0.233C87.532,79.862,70.734,93.724,50.54,94.803" fill="#36807A" fill-rule="evenodd"/><path d="   M32.938,33.294c8.122,0,14.706,6.584,14.706,14.705c0,8.123-6.584,14.707-14.706,14.707s-14.706-6.584-14.706-14.707   C18.231,39.878,24.815,33.294,32.938,33.294" fill="none" stroke="#FFFFFF" stroke-linecap="round" stroke-linejoin="round" stroke-miterlimit="2.6131" stroke-width="1.9998"/><path d="   M54.49,36.677c8.697,0,15.749,1.549,15.749,3.457c0,1.91-7.052,3.46-15.749,3.46c-2.783,0-5.396-0.159-7.664-0.437   c-0.726-2.078-1.902-3.943-3.415-5.48C46.257,37.059,50.171,36.677,54.49,36.677" fill="none" stroke="#FFFFFF" stroke-linecap="round" stroke-linejoin="round" stroke-miterlimit="2.6131" stroke-width="1.9998"/><path d="   M46.826,43.156c2.27,0.276,4.885,0.438,7.669,0.438c8.251,0,15.02-1.395,15.693-3.169c0.019,1.451,0.057,3.39,0.057,3.896   c0,1.91-7.052,3.459-15.75,3.459c-2.461,0-4.787-0.124-6.863-0.345" fill="none" stroke="#FFFFFF" stroke-linecap="round" stroke-linejoin="round" stroke-miterlimit="2.6131" stroke-width="1.9998"/><path d="   M47.632,47.458c2.074,0.221,4.402,0.344,6.863,0.344c8.251,0,15.02-1.395,15.693-3.169c0.019,1.45,0.057,3.39,0.057,3.896   c0,1.91-7.052,3.46-15.75,3.46c-2.633,0-5.112-0.143-7.295-0.394" fill="none" stroke="#FFFFFF" stroke-linecap="round" stroke-linejoin="round" stroke-miterlimit="2.6131" stroke-width="1.9998"/><path d="   M47.199,51.603c2.182,0.252,4.663,0.395,7.296,0.395c8.251,0,15.02-1.396,15.693-3.17c0.019,1.45,0.057,3.391,0.057,3.896   c0,1.91-7.052,3.459-15.75,3.459c-3.323,0-6.404-0.226-8.947-0.611" fill="none" stroke="#FFFFFF" stroke-linecap="round" stroke-linejoin="round" stroke-miterlimit="2.6131" stroke-width="1.9998"/><path d="   M45.55,55.565c2.541,0.387,5.623,0.612,8.945,0.612c8.251,0,15.02-1.396,15.693-3.169c0.019,1.451,0.057,3.39,0.057,3.896   c0,1.91-7.052,3.459-15.75,3.459c-4.792,0-9.083-0.471-11.972-1.213" fill="none" stroke="#FFFFFF" stroke-linecap="round" stroke-linejoin="round" stroke-miterlimit="2.6131" stroke-width="1.9998"/><line fill="none" stroke="#FFFFFF" stroke-linecap="round" stroke-linejoin="round" stroke-miterlimit="2.6131" stroke-width="1.9998" x1="70.339" x2="81.202" y1="57.665" y2="57.665"/><line fill="none" stroke="#FFFFFF" stroke-linecap="round" stroke-linejoin="round" stroke-miterlimit="2.6131" stroke-width="1.9998" x1="14.798" x2="21.578" y1="57.665" y2="57.665"/><path d="   M36.093,45.065c-0.036-1.076-0.848-3.676-2.952-3.643c-2.105,0.034-3.263,1.818-2.828,4.035c0.551,2.803,5.639,2.737,5.864,6.215   c0.034,0.518-0.102,1.088-0.519,1.693c-1.521,2.217-5.735,1.974-5.91-2.324" fill="none" stroke="#FFFFFF" stroke-linecap="round" stroke-linejoin="round" stroke-miterlimit="2.6131" stroke-width="1.9998"/><line fill="none" stroke="#FFFFFF" stroke-linecap="round" stroke-linejoin="round" stroke-miterlimit="2.6131" stroke-width="1.9998" x1="32.909" x2="32.909" y1="41.434" y2="39.134"/><line fill="none" stroke="#FFFFFF" stroke-linecap="round" stroke-linejoin="round" stroke-miterlimit="2.6131" stroke-width="1.9998" x1="32.909" x2="32.909" y1="57.319" y2="55.019"/><path d="   M53.001,39.073c-0.848,0.014-2.895,0.295-2.867,1.022c0.027,0.729,1.431,1.13,3.176,0.978c2.207-0.189,2.155-1.95,4.894-2.027   c0.406-0.014,0.855,0.035,1.332,0.178c1.745,0.527,1.554,1.985-1.83,2.046" fill="none" stroke="#FFFFFF" stroke-linecap="round" stroke-linejoin="round" stroke-miterlimit="2.6131" stroke-width="1.9998"/><line fill="none" stroke="#FFFFFF" stroke-linecap="round" stroke-linejoin="round" stroke-miterlimit="2.6131" stroke-width="1.9998" x1="50.142" x2="48.332" y1="40.175" y2="40.175"/><line fill="none" stroke="#FFFFFF" stroke-linecap="round" stroke-linejoin="round" stroke-miterlimit="2.6131" stroke-width="1.9998" x1="62.646" x2="60.837" y1="40.175" y2="40.175"/></g></svg>